<svg width="24" height="19" viewBox="0 0 24 19" fill="none" xmlns="http://www.w3.org/2000/svg">
<path d="M20.3179 1.74469C18.7931 1.04887 17.1483 0.545005 15.4315 0.25708C15.3955 0.25708 15.3715 0.269077 15.3474 0.293071C15.1313 0.664973 14.9032 1.14485 14.7351 1.51675C12.8862 1.24082 11.0493 1.24082 9.24847 1.51675C9.09239 1.13285 8.85227 0.664973 8.63617 0.293071C8.62416 0.269077 8.58815 0.25708 8.56413 0.25708C6.8473 0.545005 5.2025 1.06087 3.67775 1.74469C3.66575 1.74469 3.65374 1.75669 3.64173 1.76868C0.532218 6.33949 -0.320198 10.8023 0.100007 15.2052C0.100007 15.2292 0.112013 15.2532 0.136025 15.2652C2.17702 16.7528 4.16999 17.6525 6.11494 18.2524C6.15096 18.2644 6.17497 18.2524 6.19898 18.2284C6.6552 17.6045 7.07541 16.9567 7.42358 16.2609C7.44759 16.2249 7.42358 16.1769 7.38756 16.1529C6.73924 15.913 6.11494 15.6131 5.51465 15.2772C5.46662 15.2532 5.46662 15.1812 5.50264 15.1572C5.6227 15.0612 5.75476 14.9652 5.87482 14.8693C5.89883 14.8573 5.92285 14.8453 5.94686 14.8573C9.87277 16.6208 14.1349 16.6208 18.0127 14.8573C18.0368 14.8453 18.0728 14.8453 18.0968 14.8693C18.2168 14.9652 18.3369 15.0612 18.469 15.1572C18.517 15.1932 18.505 15.2532 18.457 15.2772C17.8567 15.6251 17.2324 15.913 16.584 16.1529C16.536 16.1649 16.524 16.2129 16.548 16.2609C16.9082 16.9447 17.3164 17.6045 17.7726 18.2164C17.7966 18.2404 17.8206 18.2524 17.8567 18.2404C19.8136 17.6405 21.8066 16.7408 23.8596 15.2652C23.8716 15.2532 23.8836 15.2292 23.8956 15.2052C24.3999 10.1065 23.0552 5.69166 20.3419 1.76868C20.3419 1.76868 20.3299 1.75669 20.3179 1.74469ZM8.01186 12.5299C6.82328 12.5299 5.85081 11.4621 5.85081 10.1545C5.85081 8.84683 6.81128 7.77911 8.01186 7.77911C9.22446 7.77911 10.1849 8.85883 10.1729 10.1545C10.1729 11.4621 9.21245 12.5299 8.01186 12.5299ZM15.9958 12.5299C14.8072 12.5299 13.8347 11.4621 13.8347 10.1545C13.8347 8.84683 14.7952 7.77911 15.9958 7.77911C17.2083 7.77911 18.1688 8.85883 18.1568 10.1545C18.1568 11.4621 17.2083 12.5299 15.9958 12.5299Z" fill="white"/>
</svg>
