<svg width="342" height="92" viewBox="0 0 342 92" fill="none" xmlns="http://www.w3.org/2000/svg">
<path d="M22.7203 54.04C28.6003 54.04 33.4003 50.08 33.4003 42.16V13.36C33.4003 5.08 28.8403 1.72 22.4803 1.72H0.400313V91H15.5203V54.04H22.7203ZM15.5203 13.24H16.6003C18.1603 13.24 18.4003 14.08 18.4003 15.52V39.64C18.4003 41.32 17.9203 41.92 16.6003 41.92H15.5203V13.24ZM50.5622 13H51.8822C53.2022 13 53.4422 13.6 53.4422 15.04V37C53.4422 38.32 52.9622 39.04 51.7622 39.04H50.5622V13ZM50.5622 51.76H51.7622C53.2022 51.76 53.4422 52.6 53.4422 53.8V87.28C53.4422 88.84 53.8022 90.28 54.4022 91H69.4022V90.64C68.9222 89.8 68.6822 88.36 68.6822 86.68V51.28C68.6822 46.72 65.5622 44.08 63.0422 43C65.5622 41.92 68.4422 39.4 68.4422 33.4V12.4C68.4422 5.08 64.2422 1.72 58.9622 1.72H35.3222V91H50.5622V51.76ZM105.513 18.52C105.513 7.84 100.593 0.879994 89.3128 0.879994H86.9128C75.6328 0.879994 70.7128 7.59999 70.7128 18.52V74.56C70.7128 85.48 76.4728 91.84 86.9128 91.84H89.4328C99.2728 91.84 105.513 85.72 105.513 74.56V18.52ZM89.9128 75.88C89.9128 77.44 89.3128 78.28 88.1128 78.28C86.9128 78.28 86.4328 77.44 86.4328 75.88V16.84C86.4328 15.04 86.7928 14.2 88.1128 14.2C89.4328 14.2 89.9128 15.16 89.9128 16.84V75.88ZM107.387 52.48V78.64C107.387 85.96 110.867 91.84 120.587 91.84H124.667C134.987 91.84 139.307 85.96 139.307 78.16V1.72H123.827V77.32C123.827 78.4 123.467 78.88 122.627 78.88H122.507C121.667 78.88 121.187 78.4 121.187 77.32V52.48H107.387ZM141.494 1.72V91H167.534V77.08H156.374V51.28H165.494V37.12H156.374V15.4H167.174V1.72H141.494ZM186.428 78.76C185.228 78.76 184.868 77.8 184.868 76.24V15.88C184.868 14.32 185.228 13.6 186.428 13.6C187.748 13.6 187.988 14.44 187.988 15.88V39.04H202.868V15.4C202.868 6.64 198.308 0.879994 187.748 0.879994H185.228C173.708 0.879994 169.388 7.72 169.268 17.08V75.16C169.268 85.6 173.948 91.84 185.348 91.84H187.748C198.428 91.84 202.868 84.64 202.868 76.6V50.2H187.988V76.24C187.988 77.68 187.748 78.76 186.428 78.76ZM211.141 91H226.141V15.4H232.981V1.72H204.301V15.4H211.141V91ZM244.268 91H266.228C272.828 91 277.748 86.8 277.748 77.44V14.56C277.748 5.08 272.588 1.72 265.988 1.72H244.268V91ZM259.148 13.96H260.588C262.028 13.96 262.388 14.92 262.388 16.72V75.4C262.388 77.44 262.028 78.4 260.588 78.4H259.148V13.96ZM279.893 1.72V91H292.613L292.493 37.48L299.573 91H313.613V1.72H301.013L301.133 50.08L295.253 1.72H279.893ZM315.752 1.72V91H341.792V77.08H330.632V51.28H339.752V37.12H330.632V15.4H341.432V1.72H315.752Z" fill="white"/>
</svg>
