<svg width="25" height="21" viewBox="0 0 25 21" fill="none" xmlns="http://www.w3.org/2000/svg">
<path d="M24.6164 2.67559C23.7009 3.07714 22.7255 3.34331 21.7086 3.47254C22.7548 2.8479 23.5532 1.86632 23.9286 0.6832C22.9532 1.26476 21.8763 1.67555 20.7285 1.90479C19.8023 0.918594 18.4823 0.3078 17.0422 0.3078C14.2483 0.3078 11.9989 2.57558 11.9989 5.35569C11.9989 5.75571 12.0328 6.14034 12.1159 6.50651C7.92032 6.30189 4.20786 4.29104 1.71391 1.22784C1.27851 1.98325 1.02312 2.8479 1.02312 3.77871C1.02312 5.52647 1.92315 7.07576 3.26475 7.97272C2.45394 7.95734 1.65853 7.72194 0.984655 7.35116C0.984655 7.36654 0.984655 7.38654 0.984655 7.40655C0.984655 9.85895 2.73396 11.896 5.02789 12.3652C4.61711 12.4775 4.1694 12.5314 3.70476 12.5314C3.38167 12.5314 3.05551 12.5129 2.74934 12.4452C3.40321 14.4437 5.25867 15.913 7.46491 15.9607C5.74792 17.3039 3.56783 18.1131 1.20774 18.1131C0.793878 18.1131 0.396939 18.0947 0 18.0439C2.23547 19.4855 4.88481 20.3086 7.74185 20.3086C17.0284 20.3086 22.1055 12.616 22.1055 5.94803C22.1055 5.72494 22.0978 5.50955 22.087 5.29569C23.0886 4.58489 23.9302 3.69717 24.6164 2.67559Z" fill="white"/>
</svg>
